<svg width="15" height="15" viewBox="0 0 15 15" fill="none" xmlns="http://www.w3.org/2000/svg">
<path fill-rule="evenodd" clip-rule="evenodd" d="M0.9375 7.5C0.9375 3.87563 3.87563 0.9375 7.5 0.9375C11.1244 0.9375 14.0625 3.87563 14.0625 7.5C14.0625 11.1244 11.1244 14.0625 7.5 14.0625C3.87563 14.0625 0.9375 11.1244 0.9375 7.5ZM7.5 1.5625C4.22081 1.5625 1.5625 4.22081 1.5625 7.5C1.5625 10.7792 4.22081 13.4375 7.5 13.4375C10.7792 13.4375 13.4375 10.7792 13.4375 7.5C13.4375 4.22081 10.7792 1.5625 7.5 1.5625Z" fill="#FF0000"/>
<path fill-rule="evenodd" clip-rule="evenodd" d="M7.5 4.6875C7.67259 4.6875 7.8125 4.82741 7.8125 5V7.5C7.8125 7.67259 7.67259 7.8125 7.5 7.8125C7.32741 7.8125 7.1875 7.67259 7.1875 7.5V5C7.1875 4.82741 7.32741 4.6875 7.5 4.6875Z" fill="#FF0000"/>
<path d="M8.125 10C8.125 10.3452 7.84518 10.625 7.5 10.625C7.15482 10.625 6.875 10.3452 6.875 10C6.875 9.65482 7.15482 9.375 7.5 9.375C7.84518 9.375 8.125 9.65482 8.125 10Z" fill="#FF0000"/>
</svg>
