<svg width="20" height="20" viewBox="0 0 20 20" fill="none" xmlns="http://www.w3.org/2000/svg">
<path fill-rule="evenodd" clip-rule="evenodd" d="M2.08333 10.3518C2.08333 9.25237 3.01607 8.36108 4.16667 8.36108H15.8333C16.9839 8.36108 17.9167 9.25237 17.9167 10.3518V15.9259C17.9167 17.0254 16.9839 17.9166 15.8333 17.9166H4.16667C3.01607 17.9166 2.08333 17.0254 2.08333 15.9259V10.3518ZM4.16667 9.15738C3.47631 9.15738 2.91667 9.69215 2.91667 10.3518V15.9259C2.91667 16.5856 3.47631 17.1203 4.16667 17.1203H15.8333C16.5237 17.1203 17.0833 16.5856 17.0833 15.9259V10.3518C17.0833 9.69215 16.5237 9.15738 15.8333 9.15738H4.16667Z" fill="black"/>
<path fill-rule="evenodd" clip-rule="evenodd" d="M10 1.99063C7.92893 1.99063 6.25 3.59495 6.25 5.57397V8.75915C6.25 8.97904 6.06345 9.1573 5.83333 9.1573C5.60321 9.1573 5.41667 8.97904 5.41667 8.75915V5.57397C5.41667 3.15516 7.46869 1.19434 10 1.19434C12.5313 1.19434 14.5833 3.15516 14.5833 5.57397V8.75915C14.5833 8.97904 14.3968 9.1573 14.1667 9.1573C13.9365 9.1573 13.75 8.97904 13.75 8.75915V5.57397C13.75 3.59495 12.0711 1.99063 10 1.99063Z" fill="black"/>
</svg>
