<svg width="20" height="20" viewBox="0 0 20 20" fill="none" xmlns="http://www.w3.org/2000/svg">
<path fill-rule="evenodd" clip-rule="evenodd" d="M3.33333 3.75008C2.64679 3.75008 2.08333 4.31353 2.08333 5.00008V15.0001C2.08333 15.6866 2.64679 16.2501 3.33333 16.2501H16.6667C17.3532 16.2501 17.9167 15.6866 17.9167 15.0001V5.00008C17.9167 4.31353 17.3532 3.75008 16.6667 3.75008H3.33333ZM1.25 5.00008C1.25 3.8533 2.18655 2.91675 3.33333 2.91675H16.6667C17.8135 2.91675 18.75 3.8533 18.75 5.00008V15.0001C18.75 16.1469 17.8135 17.0834 16.6667 17.0834H3.33333C2.18655 17.0834 1.25 16.1469 1.25 15.0001V5.00008Z" fill="black"/>
<path fill-rule="evenodd" clip-rule="evenodd" d="M1.32532 4.76101C1.45728 4.57249 1.71709 4.52664 1.90561 4.65861L10 10.3247L18.0944 4.65861C18.2829 4.52664 18.5427 4.57249 18.6747 4.76101C18.8066 4.94953 18.7608 5.20934 18.5723 5.3413L10.2389 11.1746C10.0955 11.2751 9.90452 11.2751 9.76106 11.1746L1.42772 5.3413C1.2392 5.20934 1.19336 4.94953 1.32532 4.76101Z" fill="black"/>
</svg>
