<svg width="20" height="20" viewBox="0 0 20 20" fill="none" xmlns="http://www.w3.org/2000/svg">
<path fill-rule="evenodd" clip-rule="evenodd" d="M0.416667 15.8333C0.416667 13.7622 2.0956 12.0833 4.16667 12.0833H10.8333C12.9044 12.0833 14.5833 13.7622 14.5833 15.8333V17.4999C14.5833 17.73 14.3968 17.9166 14.1667 17.9166C13.9365 17.9166 13.75 17.73 13.75 17.4999V15.8333C13.75 14.2224 12.4442 12.9166 10.8333 12.9166H4.16667C2.55584 12.9166 1.25 14.2224 1.25 15.8333V17.4999C1.25 17.73 1.06345 17.9166 0.833333 17.9166C0.603215 17.9166 0.416667 17.73 0.416667 17.4999V15.8333Z" fill="black"/>
<path fill-rule="evenodd" clip-rule="evenodd" d="M3.75 5.83325C3.75 3.76218 5.42893 2.08325 7.5 2.08325C9.57107 2.08325 11.25 3.76218 11.25 5.83325C11.25 7.90432 9.57107 9.58325 7.5 9.58325C5.42893 9.58325 3.75 7.90432 3.75 5.83325ZM7.5 2.91659C5.88917 2.91659 4.58333 4.22242 4.58333 5.83325C4.58333 7.44408 5.88917 8.74992 7.5 8.74992C9.11083 8.74992 10.4167 7.44408 10.4167 5.83325C10.4167 4.22242 9.11083 2.91659 7.5 2.91659Z" fill="black"/>
<path fill-rule="evenodd" clip-rule="evenodd" d="M16.2632 12.5043C16.3208 12.2814 16.548 12.1475 16.7708 12.205C18.4255 12.6322 19.5821 14.1242 19.5833 15.8331L19.5833 15.8334V17.5001C19.5833 17.7302 19.3968 17.9168 19.1667 17.9168C18.9365 17.9168 18.75 17.7302 18.75 17.5001L18.75 15.8337C18.75 15.8336 18.75 15.8336 18.75 15.8335C18.75 15.8335 18.75 15.8334 18.75 15.8334C18.7489 14.5044 17.8494 13.3441 16.5625 13.0119C16.3397 12.9543 16.2057 12.7271 16.2632 12.5043Z" fill="black"/>
<path fill-rule="evenodd" clip-rule="evenodd" d="M12.9297 2.50507C12.9868 2.28214 13.2138 2.14769 13.4367 2.20477C15.096 2.62962 16.2565 4.12476 16.2565 5.83758C16.2565 7.55041 15.096 9.04555 13.4367 9.4704C13.2138 9.52747 12.9868 9.39303 12.9297 9.1701C12.8726 8.94717 13.0071 8.72018 13.23 8.66311C14.5205 8.33267 15.4232 7.16978 15.4232 5.83758C15.4232 4.50539 14.5205 3.3425 13.23 3.01206C13.0071 2.95498 12.8726 2.728 12.9297 2.50507Z" fill="black"/>
</svg>
