<svg width="15" height="15" viewBox="0 0 15 15" fill="none" xmlns="http://www.w3.org/2000/svg">
<path fill-rule="evenodd" clip-rule="evenodd" d="M7.49829 2.81251C7.08068 2.81153 6.66437 2.85911 6.25775 2.95429C6.0897 2.99363 5.92158 2.88929 5.88225 2.72124C5.84291 2.55319 5.94725 2.38508 6.1153 2.34574C6.56898 2.23955 7.03346 2.18645 7.49939 2.18752C9.81156 2.18766 11.6071 3.50835 12.8051 4.78628C13.407 5.42833 13.8675 6.06918 14.1776 6.54923C14.3328 6.78955 14.4508 6.99037 14.5304 7.13197C14.5703 7.20278 14.6005 7.25885 14.6211 7.2977C14.6314 7.31713 14.6392 7.33226 14.6446 7.34279L14.6509 7.35509L14.6527 7.35858L14.6532 7.35965C14.6533 7.35978 14.6535 7.36026 14.374 7.50002L14.0984 7.3527C14.0724 7.40148 14.0459 7.45006 14.0191 7.49844C14.009 7.48004 13.9978 7.45999 13.9857 7.43838C13.9115 7.30653 13.8001 7.11673 13.6525 6.8883C13.3571 6.43086 12.9191 5.8217 12.3492 5.21375C11.2035 3.99175 9.56168 2.81252 7.49902 2.81252L7.49829 2.81251ZM14.0191 7.49844C13.6668 8.13487 13.2535 8.73574 12.7849 9.29256C12.6738 9.42462 12.6908 9.62176 12.8228 9.73288C12.9549 9.844 13.152 9.82702 13.2631 9.69497C13.7953 9.06253 14.26 8.37627 14.6496 7.64733C14.6974 7.55794 14.6989 7.45092 14.6535 7.36026L14.374 7.50002C14.0945 7.63977 14.0946 7.63985 14.0946 7.6399L14.0935 7.63769L14.0888 7.62856C14.0845 7.62016 14.0778 7.60722 14.0687 7.59002C14.0564 7.56691 14.0399 7.53614 14.0191 7.49844ZM4.03587 3.59786C4.14061 3.73503 4.11433 3.93114 3.97716 4.03588C2.74984 4.97308 1.7297 6.15318 0.980046 7.50188C0.990143 7.5202 1.00124 7.54015 1.01333 7.56165C1.0875 7.6935 1.19897 7.8833 1.3465 8.11173C1.64193 8.56918 2.0799 9.17833 2.64986 9.78628C3.795 11.0078 5.43599 12.1865 7.49745 12.1875C8.77304 12.1661 10.0084 11.7374 11.0231 10.964C11.1603 10.8594 11.3564 10.8858 11.461 11.0231C11.5657 11.1603 11.5392 11.3564 11.4019 11.461C10.2805 12.3159 8.91499 12.7894 7.50511 12.8125L7.5 12.8126C5.18765 12.8126 3.39203 11.4918 2.19389 10.2137C1.59198 9.5717 1.1315 8.93086 0.821472 8.4508C0.666262 8.21048 0.548246 8.00966 0.468599 7.86807C0.428765 7.79725 0.398493 7.74118 0.377933 7.70233C0.367651 7.6829 0.359795 7.66777 0.354383 7.65724L0.348099 7.64494L0.346335 7.64145L0.345798 7.64038C0.345731 7.64025 0.345492 7.63977 0.625 7.50002L0.345492 7.63977C0.300082 7.54895 0.301628 7.44173 0.349639 7.35226C1.14814 5.86418 2.25564 4.56407 3.59784 3.53915C3.73501 3.4344 3.93112 3.46069 4.03587 3.59786ZM6.40363 5.96198C6.52129 6.08825 6.51431 6.28599 6.38804 6.40364C5.97001 6.79317 5.79794 7.3798 5.93932 7.93341C6.0807 8.48702 6.51299 8.91931 7.0666 9.0607C7.62021 9.20208 8.20685 9.03 8.59637 8.61198C8.71403 8.48571 8.91177 8.47873 9.03804 8.59639C9.16431 8.71405 9.17129 8.91179 9.05363 9.03805C8.5083 9.62329 7.68701 9.8642 6.91195 9.66626C6.1369 9.46833 5.53169 8.86312 5.33375 8.08806C5.13582 7.31301 5.37672 6.49172 5.96196 5.94639C6.08823 5.82873 6.28597 5.83571 6.40363 5.96198Z" fill="#414141"/>
<path fill-rule="evenodd" clip-rule="evenodd" d="M0.404029 0.404029C0.526068 0.28199 0.723932 0.28199 0.845971 0.404029L14.596 14.154C14.718 14.2761 14.718 14.4739 14.596 14.596C14.4739 14.718 14.2761 14.718 14.154 14.596L0.404029 0.845971C0.28199 0.723932 0.28199 0.526068 0.404029 0.404029Z" fill="#414141"/>
</svg>
