<svg width="15" height="15" viewBox="0 0 15 15" fill="none" xmlns="http://www.w3.org/2000/svg">
<path fill-rule="evenodd" clip-rule="evenodd" d="M0.979019 7.5C0.989388 7.51883 1.00083 7.53941 1.01333 7.56164C1.0875 7.69348 1.19897 7.88329 1.3465 8.11171C1.64193 8.56916 2.0799 9.17831 2.64986 9.78627C3.79547 11.0083 5.43735 12.1875 7.5 12.1875C9.56265 12.1875 11.2045 11.0083 12.3501 9.78627C12.9201 9.17831 13.3581 8.56916 13.6535 8.11171C13.801 7.88329 13.9125 7.69348 13.9867 7.56164C13.9992 7.53941 14.0106 7.51883 14.021 7.5C14.0106 7.48117 13.9992 7.46059 13.9867 7.43836C13.9125 7.30652 13.801 7.11671 13.6535 6.88829C13.3581 6.43084 12.9201 5.82169 12.3501 5.21373C11.2045 3.99174 9.56265 2.8125 7.5 2.8125C5.43735 2.8125 3.79547 3.99174 2.64986 5.21373C2.0799 5.82169 1.64193 6.43084 1.3465 6.88829C1.19897 7.11671 1.0875 7.30652 1.01333 7.43836C1.00083 7.46059 0.989388 7.48117 0.979019 7.5ZM14.375 7.5C14.6545 7.36025 14.6545 7.36013 14.6544 7.36L14.6537 7.35857L14.6519 7.35508L14.6456 7.34277C14.6402 7.33225 14.6323 7.31711 14.6221 7.29769C14.6015 7.25883 14.5712 7.20277 14.5314 7.13195C14.4518 6.99036 14.3337 6.78954 14.1785 6.54921C13.8685 6.06916 13.408 5.42831 12.8061 4.78627C11.608 3.50826 9.81235 2.1875 7.5 2.1875C5.18765 2.1875 3.39203 3.50826 2.19389 4.78627C1.59198 5.42831 1.1315 6.06916 0.821472 6.54921C0.666262 6.78954 0.548246 6.99036 0.468599 7.13195C0.428765 7.20277 0.398493 7.25883 0.377933 7.29769C0.367651 7.31711 0.359795 7.33225 0.354383 7.34277L0.348099 7.35508L0.346335 7.35857L0.345798 7.35963C0.345731 7.35977 0.345492 7.36025 0.625 7.5L0.345492 7.36025C0.301503 7.44822 0.301503 7.55178 0.345492 7.63975L0.625 7.5C0.345492 7.63975 0.345425 7.63962 0.345492 7.63975L0.345798 7.64037L0.346335 7.64143L0.348099 7.64492L0.354383 7.65723C0.359795 7.66775 0.367651 7.68289 0.377933 7.70231C0.398493 7.74117 0.428765 7.79723 0.468599 7.86805C0.548246 8.00964 0.666262 8.21046 0.821472 8.45079C1.1315 8.93084 1.59198 9.57169 2.19389 10.2137C3.39203 11.4917 5.18765 12.8125 7.5 12.8125C9.81235 12.8125 11.608 11.4917 12.8061 10.2137C13.408 9.57169 13.8685 8.93084 14.1785 8.45079C14.3337 8.21046 14.4518 8.00964 14.5314 7.86805C14.5712 7.79723 14.6015 7.74117 14.6221 7.70231C14.6323 7.68289 14.6402 7.66775 14.6456 7.65723L14.6519 7.64492L14.6537 7.64143L14.6542 7.64037C14.6543 7.64023 14.6545 7.63975 14.375 7.5ZM14.375 7.5L14.6545 7.63975C14.6985 7.55178 14.6984 7.44797 14.6544 7.36L14.375 7.5Z" fill="#414141"/>
<path fill-rule="evenodd" clip-rule="evenodd" d="M5.3125 7.5C5.3125 6.29188 6.29188 5.3125 7.5 5.3125C8.70812 5.3125 9.6875 6.29188 9.6875 7.5C9.6875 8.70812 8.70812 9.6875 7.5 9.6875C6.29188 9.6875 5.3125 8.70812 5.3125 7.5ZM7.5 5.9375C6.63706 5.9375 5.9375 6.63706 5.9375 7.5C5.9375 8.36295 6.63706 9.0625 7.5 9.0625C8.36295 9.0625 9.0625 8.36295 9.0625 7.5C9.0625 6.63706 8.36295 5.9375 7.5 5.9375Z" fill="#414141"/>
</svg>
