<svg width="20" height="20" viewBox="0 0 20 20" fill="none" xmlns="http://www.w3.org/2000/svg">
<path fill-rule="evenodd" clip-rule="evenodd" d="M2.08333 4.99996C2.08333 3.84937 3.01607 2.91663 4.16667 2.91663H15.8333C16.9839 2.91663 17.9167 3.84937 17.9167 4.99996V16.6666C17.9167 17.8172 16.9839 18.75 15.8333 18.75H4.16667C3.01607 18.75 2.08333 17.8172 2.08333 16.6666V4.99996ZM4.16667 3.74996C3.47631 3.74996 2.91667 4.3096 2.91667 4.99996V16.6666C2.91667 17.357 3.47631 17.9166 4.16667 17.9166H15.8333C16.5237 17.9166 17.0833 17.357 17.0833 16.6666V4.99996C17.0833 4.3096 16.5237 3.74996 15.8333 3.74996H4.16667Z" fill="black"/>
<path fill-rule="evenodd" clip-rule="evenodd" d="M13.3333 1.25C13.5635 1.25 13.75 1.43655 13.75 1.66667V5C13.75 5.23012 13.5635 5.41667 13.3333 5.41667C13.1032 5.41667 12.9167 5.23012 12.9167 5V1.66667C12.9167 1.43655 13.1032 1.25 13.3333 1.25Z" fill="black"/>
<path fill-rule="evenodd" clip-rule="evenodd" d="M6.66667 1.25C6.89679 1.25 7.08333 1.43655 7.08333 1.66667V5C7.08333 5.23012 6.89679 5.41667 6.66667 5.41667C6.43655 5.41667 6.25 5.23012 6.25 5V1.66667C6.25 1.43655 6.43655 1.25 6.66667 1.25Z" fill="black"/>
<path fill-rule="evenodd" clip-rule="evenodd" d="M2.08333 8.33329C2.08333 8.10317 2.26988 7.91663 2.5 7.91663H17.5C17.7301 7.91663 17.9167 8.10317 17.9167 8.33329C17.9167 8.56341 17.7301 8.74996 17.5 8.74996H2.5C2.26988 8.74996 2.08333 8.56341 2.08333 8.33329Z" fill="black"/>
</svg>
