<svg width="20" height="20" viewBox="0 0 20 20" fill="none" xmlns="http://www.w3.org/2000/svg">
<path fill-rule="evenodd" clip-rule="evenodd" d="M10 1.24996C6.08798 1.24996 2.91667 4.42128 2.91667 8.33329C2.91667 11.0825 4.69406 13.6892 6.55248 15.6509C7.47317 16.6227 8.39528 17.4169 9.08768 17.9683C9.43355 18.2437 9.72126 18.4579 9.92169 18.6026C9.9495 18.6227 9.97563 18.6414 10 18.6588C10.0244 18.6414 10.0505 18.6227 10.0783 18.6026C10.2787 18.4579 10.5665 18.2437 10.9123 17.9683C11.6047 17.4169 12.5268 16.6227 13.4475 15.6509C15.3059 13.6892 17.0833 11.0825 17.0833 8.33329C17.0833 4.42128 13.912 1.24996 10 1.24996ZM10 19.1666C9.76887 19.5133 9.76875 19.5132 9.76861 19.5131L9.76817 19.5128L9.76678 19.5119L9.76196 19.5087L9.74438 19.4968C9.72917 19.4865 9.70707 19.4713 9.67853 19.4516C9.62147 19.4121 9.53866 19.3539 9.43378 19.2782C9.22406 19.1267 8.92583 18.9047 8.56857 18.6202C7.85472 18.0517 6.90183 17.2313 5.94752 16.224C4.05594 14.2274 2.08333 11.4174 2.08333 8.33329C2.08333 3.96104 5.62775 0.416626 10 0.416626C14.3723 0.416626 17.9167 3.96104 17.9167 8.33329C17.9167 11.4174 15.9441 14.2274 14.0525 16.224C13.0982 17.2313 12.1453 18.0517 11.4314 18.6202C11.0742 18.9047 10.7759 19.1267 10.5662 19.2782C10.4613 19.3539 10.3785 19.4121 10.3215 19.4516C10.2929 19.4713 10.2708 19.4865 10.2556 19.4968L10.238 19.5087L10.2332 19.5119L10.2318 19.5128L10.2314 19.5131C10.2312 19.5132 10.2311 19.5133 10 19.1666ZM10 19.1666L10.2311 19.5133C10.0912 19.6066 9.90883 19.6066 9.76887 19.5133L10 19.1666Z" fill="black"/>
<path fill-rule="evenodd" clip-rule="evenodd" d="M7.08333 8.33329C7.08333 6.72246 8.38917 5.41663 10 5.41663C11.6108 5.41663 12.9167 6.72246 12.9167 8.33329C12.9167 9.94412 11.6108 11.25 10 11.25C8.38917 11.25 7.08333 9.94412 7.08333 8.33329ZM10 6.24996C8.84941 6.24996 7.91667 7.1827 7.91667 8.33329C7.91667 9.48389 8.84941 10.4166 10 10.4166C11.1506 10.4166 12.0833 9.48389 12.0833 8.33329C12.0833 7.1827 11.1506 6.24996 10 6.24996Z" fill="black"/>
</svg>
