<svg width="20" height="20" viewBox="0 0 20 20" fill="none" xmlns="http://www.w3.org/2000/svg">
<path fill-rule="evenodd" clip-rule="evenodd" d="M2.91667 15.8333C2.91667 13.7622 4.5956 12.0833 6.66667 12.0833H13.3333C15.4044 12.0833 17.0833 13.7622 17.0833 15.8333V17.4999C17.0833 17.73 16.8968 17.9166 16.6667 17.9166C16.4365 17.9166 16.25 17.73 16.25 17.4999V15.8333C16.25 14.2224 14.9442 12.9166 13.3333 12.9166H6.66667C5.05584 12.9166 3.75 14.2224 3.75 15.8333V17.4999C3.75 17.73 3.56345 17.9166 3.33333 17.9166C3.10322 17.9166 2.91667 17.73 2.91667 17.4999V15.8333Z" fill="black"/>
<path fill-rule="evenodd" clip-rule="evenodd" d="M6.25 5.83325C6.25 3.76218 7.92893 2.08325 10 2.08325C12.0711 2.08325 13.75 3.76218 13.75 5.83325C13.75 7.90432 12.0711 9.58325 10 9.58325C7.92893 9.58325 6.25 7.90432 6.25 5.83325ZM10 2.91659C8.38917 2.91659 7.08333 4.22242 7.08333 5.83325C7.08333 7.44408 8.38917 8.74992 10 8.74992C11.6108 8.74992 12.9167 7.44408 12.9167 5.83325C12.9167 4.22242 11.6108 2.91659 10 2.91659Z" fill="black"/>
</svg>
