<?xml version="1.0" encoding="iso-8859-1"?>
<?xml-stylesheet type="text/css" href="../../public/style.css" ?>
<svg class="horse_svg" xmlns="http://www.w3.org/2000/svg" width="140" height="95" viewBox="0 0 500 500"
  transform="scale(-1, 1)">
  <path class="horse_svg_path" d="M59,338.6c1.6,4,3.1,7.9,4.9,11.5c8.4,15.7,25,23,41.6,26.1v-28.5H93.4c-2.3-5.9-7-10.3-13.1-12.2
	c-1.9-1-3.1-2.6-3.5-4.7c-0.2,0-0.2,0-0.2,0c-1.6-13.1-3.8-26.9-6.5-40.9c-1.3-3.5-0.1-6.7,3.7-7.9c8.2-1,16.1-2.6,24-4.7
	c17-0.8,34.1-4.6,48.8-13.5c13.1,7.1,17.9,20.9,25,33v-0.2c16.8,26.2,30.4,54.2,40.9,83.2c0.7,1.8,1,3.7,1,5.6c0,3-0.9,5.8-2.3,8.2
	c-8,8.2-13.2,18.3-17.3,28.8l31.6,0.3c0.2-7.6,0.9-14.9,5.4-21.3c4-3.5,7.1-6.5,7.7-12.1c-0.9-7.1-5.4-13.4-8.4-19.8l0,0
	c-3.7-7.9-5.9-16.3-7-24.8c-1.2-7.3-3.2-14.5-5.2-21.7c-5.9-19.7-8.8-40.1-12.8-60.3c35.6,5.7,71.7,3,106.8-4.2
	c3.9,20.7,9.8,40.7,17.3,60.3c2.8,10.2-5.1,20.6-10.1,28.8c-11.1,16.4-23.6,31.6-34.3,48.3c-6.5,8-11.9,17-16.1,26.6l33.4,0.5
	l1-12.2c0.1-1.8,0.1-3.6,1.7-4.5c4.8-1.5,7.2-5.7,8.9-10.1c3.7-8.9,8.4-17.5,14-25.7c10.3-14.2,22.7-26.6,36.9-36.9c0,0,0,0,0.2-0.2
	c3.7-2.4,4.4-6.3,4.4-10.3c-1.4-7.5-2.9-15-4.2-22.6c-1.2-14.7,5.4-28.8,17.5-37.4c6.5,9.9,14.8,18.2,24,25.7
	c11.1,7.8,21.6,16.5,31.3,26l0,0c2.4,2.4,4.7,4.7,6.8,7c5.1,6.6,8.6,14.3,11.5,22c5.8,14.8,10,29.1,12.9,42.8c1,4.5-0.1,9-2.3,12.9
	l0,0c-5.2,6.8-9.4,14.3-12.4,22.6l31.1,0.3l0.2-14c-0.2-1.3,0.3-2,1-3h0.2c5.4-2.7,7.4-7.5,6.6-13.3c-9.6-23.2-13.2-42.8-18.9-63.6
	l0,0c-2.3-7.3-2.8-15.2-1.9-22.9c0.6-3.7-0.6-7.1-2.8-10.1c-3.7-4.5-7.5-9.4-11.4-14.3c-8.1-10.1-11.8-22.7-14.2-35.1
	c-4-19.1-0.4-39.2-2.4-59.1c-2.9-15.9-11.9-29.9-22-42.1c45.7,5.8,41,76.1,41.4,111.9c0,2.3,0,4.5,0,7l41.6-0.5
	c-1.8-63.5-10.1-137.7-91.1-128.2c-19.4-6.4-38.7-13.1-59.3-13.6c-48,0.4-85,14-132.7,9.1c-66.7-8.6-74.2-89-146.9-90.4
	c-9.1,0-18.4,1.4-27.1,4c-13.8-3.1-28-3.9-42.1-2.8c7.5,5.9,14.5,11.7,21.5,17.7c2.9,18.5,0.7,37.2,1.4,55.8
	c-0.2,6,1.4,33.8,2.8,46.2c-0.8,10.8,10.9,16.3,22,15.2c5.6-0.6,6-4.6,13.9-5.6c5.1-3.2,3.2-9.4,3.7-14.5
	c0.9-12.4,6.9-23.6,9.6-35.7c4.4-1.7,8.4-3.7,12.2-5.8c8.6,13.5,13.1,29,13.3,44.8c0.3,14,0.5,28,0.5,42c0-1,0-0.3,0.2,0.2
	c0.7,10.7,3.7,21,8.7,30.2c-18.4,3.1-36,8.7-52.8,16.8c-6.8,3.8-15.3,7.2-19.8,14c-0.2,0-0.2,0-0.2,0.2c-2.4,3.8-2.6,8.2-1.7,12.4
	C44.1,298.8,50.4,320.3,59,338.6z" />
</svg>