<svg width="200" height="200" viewBox="0 0 200 200" fill="none" xmlns="http://www.w3.org/2000/svg">
<circle cx="100" cy="100" r="100" fill="#FF8E08"/>
<g clip-path="url(#clip0_2153_278)">
<path d="M36.7172 152.8C32.8505 152.8 29.8505 151.8 27.7172 149.8C25.7172 147.667 24.7172 144.667 24.7172 140.8V137.4C24.7172 133.533 25.7172 130.6 27.7172 128.6C29.8505 126.467 32.8505 125.4 36.7172 125.4H39.3172C43.1839 125.4 46.1172 126.467 48.1172 128.6C50.2505 130.6 51.3172 133.533 51.3172 137.4V140.8C51.3172 144.667 50.2505 147.667 48.1172 149.8C46.1172 151.8 43.1839 152.8 39.3172 152.8H36.7172ZM110.682 55.26L71.8019 146.7C70.9619 148.98 69.6419 150.78 67.8419 152.1C66.1619 153.3 64.3019 153.9 62.2619 153.9C59.0219 153.9 56.6219 153 55.0619 151.2C53.5019 149.4 52.7219 147.18 52.7219 144.54C52.7219 143.46 52.9019 142.32 53.2619 141.12L98.0819 33.48C99.0419 31.08 100.482 29.22 102.402 27.9C104.442 26.58 106.602 26.04 108.882 26.28C111.042 26.28 113.022 26.94 114.822 28.26C116.742 29.46 118.122 31.2 118.962 33.48L163.242 138.96C163.842 140.52 164.142 141.96 164.142 143.28C164.142 146.52 163.062 149.1 160.902 151.02C158.862 152.94 156.582 153.9 154.062 153.9C151.902 153.9 149.922 153.24 148.122 151.92C146.442 150.6 145.122 148.8 144.162 146.52L105.462 56.34L110.682 55.26ZM77.3819 124.74L87.2819 104.04H135.882L139.302 124.74H77.3819Z" fill="#FF8E08"/>
<path d="M36.7172 152.8C32.8505 152.8 29.8505 151.8 27.7172 149.8C25.7172 147.667 24.7172 144.667 24.7172 140.8V137.4C24.7172 133.533 25.7172 130.6 27.7172 128.6C29.8505 126.467 32.8505 125.4 36.7172 125.4H39.3172C43.1839 125.4 46.1172 126.467 48.1172 128.6C50.2505 130.6 51.3172 133.533 51.3172 137.4V140.8C51.3172 144.667 50.2505 147.667 48.1172 149.8C46.1172 151.8 43.1839 152.8 39.3172 152.8H36.7172ZM110.682 55.26L71.8019 146.7C70.9619 148.98 69.6419 150.78 67.8419 152.1C66.1619 153.3 64.3019 153.9 62.2619 153.9C59.0219 153.9 56.6219 153 55.0619 151.2C53.5019 149.4 52.7219 147.18 52.7219 144.54C52.7219 143.46 52.9019 142.32 53.2619 141.12L98.0819 33.48C99.0419 31.08 100.482 29.22 102.402 27.9C104.442 26.58 106.602 26.04 108.882 26.28C111.042 26.28 113.022 26.94 114.822 28.26C116.742 29.46 118.122 31.2 118.962 33.48L163.242 138.96C163.842 140.52 164.142 141.96 164.142 143.28C164.142 146.52 163.062 149.1 160.902 151.02C158.862 152.94 156.582 153.9 154.062 153.9C151.902 153.9 149.922 153.24 148.122 151.92C146.442 150.6 145.122 148.8 144.162 146.52L105.462 56.34L110.682 55.26ZM77.3819 124.74L87.2819 104.04H135.882L139.302 124.74H77.3819Z" fill="#F5F5F5"/>
</g>
<defs>
<clipPath id="clip0_2153_278">
<rect width="153" height="149" fill="white" transform="translate(18 16)"/>
</clipPath>
</defs>
</svg>
